<svg xmlns="http://www.w3.org/2000/svg" xmlns:xlink="http://www.w3.org/1999/xlink" width="200" zoomAndPan="magnify" viewBox="0 0 150 149.999998" height="200" preserveAspectRatio="xMidYMid meet" version="1.0"><defs><clipPath id="4e662397d2"><path d="M 8.332031 8.332031 L 141.667969 8.332031 L 141.667969 141.667969 L 8.332031 141.667969 Z M 8.332031 8.332031 " clip-rule="nonzero"/></clipPath><clipPath id="3791b76c9e"><path d="M 75 8.332031 C 38.179688 8.332031 8.332031 38.179688 8.332031 75 C 8.332031 111.820312 38.179688 141.667969 75 141.667969 C 111.820312 141.667969 141.667969 111.820312 141.667969 75 C 141.667969 38.179688 111.820312 8.332031 75 8.332031 Z M 75 8.332031 " clip-rule="nonzero"/></clipPath><clipPath id="c49c6758dc"><path d="M 40.03125 93.164062 L 61.273438 93.164062 L 61.273438 125.738281 L 40.03125 125.738281 Z M 40.03125 93.164062 " clip-rule="nonzero"/></clipPath><clipPath id="7011cc2e64"><path d="M 40.03125 46.4375 L 61.273438 46.4375 L 61.273438 75.410156 L 40.03125 75.410156 Z M 40.03125 46.4375 " clip-rule="nonzero"/></clipPath><clipPath id="8fbc867b23"><path d="M 71.097656 24.261719 L 95.242188 24.261719 L 95.242188 46.4375 L 71.097656 46.4375 Z M 71.097656 24.261719 " clip-rule="nonzero"/></clipPath><clipPath id="4a997f8ba6"><path d="M 71.097656 73.847656 L 95.242188 73.847656 L 95.242188 95.507812 L 71.097656 95.507812 Z M 71.097656 73.847656 " clip-rule="nonzero"/></clipPath><clipPath id="29a46b45a3"><path d="M 89.660156 24.261719 L 109.96875 24.261719 L 109.96875 95.507812 L 89.660156 95.507812 Z M 89.660156 24.261719 " clip-rule="nonzero"/></clipPath></defs><g clip-path="url(#4e662397d2)"><g clip-path="url(#3791b76c9e)"><path fill="#000000" d="M 8.332031 8.332031 L 141.667969 8.332031 L 141.667969 141.667969 L 8.332031 141.667969 Z M 8.332031 8.332031 " fill-opacity="1" fill-rule="nonzero"/></g></g><g clip-path="url(#c49c6758dc)"><path fill="#ff0000" d="M 40.03125 93.164062 L 61.273438 93.164062 L 61.273438 125.777344 L 40.03125 125.777344 Z M 40.03125 93.164062 " fill-opacity="1" fill-rule="nonzero"/></g><g clip-path="url(#7011cc2e64)"><path fill="#ffffff" d="M 40.03125 46.4375 L 61.273438 46.4375 L 61.273438 75.398438 L 40.03125 75.398438 Z M 40.03125 46.4375 " fill-opacity="1" fill-rule="nonzero"/></g><g clip-path="url(#8fbc867b23)"><path fill="#ffffff" d="M 71.097656 24.261719 L 95.269531 24.261719 L 95.269531 46.4375 L 71.097656 46.4375 Z M 71.097656 24.261719 " fill-opacity="1" fill-rule="nonzero"/></g><g clip-path="url(#4a997f8ba6)"><path fill="#ffffff" d="M 71.097656 73.847656 L 95.207031 73.847656 L 95.207031 95.507812 L 71.097656 95.507812 Z M 71.097656 73.847656 " fill-opacity="1" fill-rule="nonzero"/></g><g clip-path="url(#29a46b45a3)"><path fill="#ffffff" d="M 89.660156 24.261719 L 109.96875 24.261719 L 109.96875 95.507812 L 89.660156 95.507812 Z M 89.660156 24.261719 " fill-opacity="1" fill-rule="nonzero"/></g></svg>